<?xml version="1.0" standalone="no"?>
<!DOCTYPE svg PUBLIC "-//W3C//DTD SVG 20010904//EN"
 "http://www.w3.org/TR/2001/REC-SVG-20010904/DTD/svg10.dtd">
<svg version="1.0" xmlns="http://www.w3.org/2000/svg"
 width="300.000000pt" height="75.000000pt" viewBox="0 0 300.000000 75.000000"
 preserveAspectRatio="xMidYMid meet">
<metadata>
Created by potrace 1.10, written by Peter Selinger 2001-2011
</metadata>
<g transform="translate(0.000000,75.000000) scale(0.100000,-0.100000)"
fill="#000000" stroke="none">
<path d="M1180 625 c-16 -9 -30 -10 -42 -4 -24 13 -54 11 -67 -5 -9 -11 -18
-11 -56 2 -40 13 -50 13 -91 -1 -36 -12 -53 -13 -71 -4 -19 9 -29 7 -53 -12
-24 -17 -34 -19 -49 -11 -29 15 -123 12 -145 -5 -11 -8 -29 -12 -42 -9 -13 3
-36 -1 -52 -9 -16 -7 -43 -12 -60 -9 -21 3 -36 -2 -51 -17 -18 -18 -41 -21
-71 -11 -7 3 -52 0 -70 -4 -72 -17 -79 -33 -75 -171 6 -162 25 -160 25 2 l0
131 44 11 c101 25 116 10 116 -118 0 -83 -2 -94 -23 -115 -13 -13 -47 -29 -75
-36 -29 -6 -52 -16 -52 -21 0 -18 130 22 150 46 7 8 16 12 21 9 15 -9 20 40
17 154 -3 115 -1 122 38 122 10 0 14 -14 14 -54 0 -51 1 -53 25 -48 23 4 25 9
25 57 0 46 3 53 23 59 12 3 25 6 30 6 4 0 7 -63 7 -140 l0 -140 -30 0 c-30 0
-30 1 -30 54 0 34 5 56 13 59 6 3 1 6 -13 6 -45 1 -53 -12 -48 -72 4 -53 3
-56 -21 -63 -21 -6 -23 -8 -8 -11 10 -3 27 3 38 13 17 15 23 15 44 4 20 -11
28 -10 47 2 14 9 36 13 55 11 23 -4 38 1 54 16 20 19 24 19 39 6 19 -17 46
-20 55 -5 3 6 -5 10 -19 10 -22 0 -27 8 -42 55 -16 48 -21 55 -43 54 -14 0
-20 -3 -13 -6 7 -3 12 -25 12 -58 0 -46 -3 -53 -22 -59 -13 -3 -26 -6 -30 -6
-4 0 -7 62 -5 138 l2 137 64 3 c49 2 68 -1 82 -14 24 -22 25 -74 0 -105 -18
-24 -18 -25 10 -86 25 -56 31 -63 57 -63 15 0 36 6 46 13 14 10 28 11 57 3 29
-7 50 -7 82 2 45 14 47 14 92 9 17 -3 20 -2 8 0 -23 4 -23 7 -23 144 l0 139
31 0 32 0 -7 -55 -6 -55 31 0 32 0 -7 55 -6 55 30 0 30 0 0 -135 0 -135 -25 0
c-14 0 -25 -4 -25 -10 0 -16 46 -12 60 5 16 19 20 269 5 283 -19 18 -50 21
-75 7z m-158 -37 c9 -7 18 -24 20 -38 2 -21 -2 -26 -24 -28 -23 -3 -28 1 -28
18 0 16 -5 21 -22 18 -38 -5 -31 -27 26 -80 57 -52 67 -78 46 -117 -5 -10 -23
-24 -39 -31 -53 -22 -111 7 -111 56 0 20 5 24 29 24 21 0 28 -5 27 -17 0 -12
7 -19 22 -21 18 -3 22 1 22 21 0 16 -15 37 -50 66 -42 35 -50 48 -50 76 0 24
7 39 22 49 27 19 88 21 110 4z m-162 -132 l0 -134 -30 -4 -30 -5 0 139 0 138
30 0 30 0 0 -134z"/>
<path d="M1363 622 c-25 -16 -36 -123 -20 -187 3 -11 6 -38 7 -60 2 -39 2 -39
10 -11 5 16 8 78 7 138 l-2 108 28 0 c26 0 27 -2 27 -57 l1 -58 28 55 c25 47
33 55 60 56 17 1 31 0 31 -2 0 -2 -13 -25 -30 -51 -16 -26 -30 -51 -30 -57 0
-6 16 -44 36 -86 34 -73 38 -77 85 -94 47 -17 52 -17 94 -1 25 9 49 14 54 10
16 -9 23 52 19 164 l-3 103 29 -6 c16 -3 34 -6 40 -6 7 0 20 -40 30 -92 11
-51 20 -88 22 -83 1 6 10 45 19 88 l17 78 37 -3 36 -3 3 -139 3 -138 -23 6
c-13 3 -25 6 -28 6 -3 0 -4 42 -3 92 l3 93 -20 -75 c-11 -41 -20 -83 -20 -92
0 -19 -34 -25 -45 -8 -3 5 -14 49 -25 97 l-19 88 0 -92 c-1 -87 -2 -92 -23
-96 -13 -2 -6 -3 14 -1 20 2 40 -1 44 -7 4 -7 21 -9 45 -5 21 3 40 2 43 -3 3
-4 33 -11 67 -15 47 -4 68 -2 85 9 20 13 24 12 48 -12 19 -19 33 -24 56 -21
17 3 33 1 36 -4 11 -17 73 -9 86 11 11 19 13 18 30 -10 13 -21 25 -29 45 -28
l28 1 -25 7 c-20 5 -29 20 -45 66 -22 65 -30 75 -60 75 -12 0 -16 -3 -9 -8 6
-4 14 -31 18 -60 l7 -53 -33 3 -33 2 0 138 c0 118 2 137 15 133 8 -2 37 -7 65
-11 90 -13 137 -94 83 -143 -21 -20 -21 -21 -3 -63 11 -24 25 -52 33 -63 14
-20 14 -20 7 0 -14 40 -17 93 -5 114 29 55 -3 161 -49 161 -9 0 -21 4 -26 9
-6 5 -32 11 -60 15 -52 6 -85 -10 -85 -43 0 -9 -8 -2 -20 16 -38 63 -103 73
-144 21 -24 -31 -26 -32 -26 -10 0 29 -42 72 -71 72 -11 0 -33 -9 -49 -20
l-27 -19 -24 25 c-20 21 -32 25 -69 23 -25 -1 -57 1 -72 5 -15 5 -35 3 -48 -4
-14 -8 -25 -8 -34 -1 -10 8 -72 12 -181 10 -11 0 -33 3 -50 6 -16 3 -36 2 -42
-3z m259 -134 c3 -109 4 -113 26 -116 22 -3 22 -2 22 113 0 103 2 116 16 111
9 -3 22 -6 30 -6 11 0 14 -22 14 -114 0 -112 -1 -115 -26 -135 -48 -37 -117
-20 -133 33 -5 17 -10 75 -11 129 l-1 97 30 0 30 0 3 -112z m543 49 c5 -15 54
-271 53 -273 -2 -1 -15 0 -30 3 -19 4 -29 13 -33 33 -5 21 -13 29 -36 32 -21
3 -29 1 -29 -11 0 -29 -17 -44 -42 -38 l-24 6 28 113 c15 62 28 121 28 132 0
16 5 18 42 12 23 -4 43 -8 43 -9z"/>
<path d="M2117 470 c-3 -14 -9 -42 -12 -62 -6 -35 -4 -38 19 -38 18 0 24 4 20
14 -3 8 -9 36 -13 62 -6 40 -9 45 -14 24z"/>
<path d="M660 495 c0 -32 3 -36 23 -33 17 2 22 10 22 33 0 23 -5 31 -22 33
-20 3 -23 -1 -23 -33z"/>
<path d="M2302 438 c3 -29 6 -33 33 -33 21 0 31 5 33 18 5 25 -16 47 -45 47
-21 0 -24 -4 -21 -32z"/>
<path d="M270 364 l0 -96 23 15 c20 13 22 23 22 93 0 74 -1 79 -22 82 -23 3
-23 1 -23 -94z"/>
<path d="M1134 429 c3 -17 6 -48 6 -68 0 -24 3 -32 9 -22 5 7 14 10 20 7 7 -5
11 2 11 17 0 47 12 86 29 90 9 3 -6 5 -33 6 l-48 1 6 -31z"/>
<path d="M1405 454 c18 -4 21 -12 20 -57 0 -42 3 -52 16 -49 9 1 22 -5 29 -13
7 -8 27 -14 44 -14 l31 1 -30 7 c-26 5 -33 14 -51 66 -19 54 -24 60 -50 62
-16 0 -20 -1 -9 -3z"/>
<path d="M2887 112 c-22 -24 -21 -45 2 -66 23 -21 51 -15 69 15 11 17 11 25
-3 45 -18 29 -46 31 -68 6z m60 -23 c8 -3 3 -13 -12 -28 -18 -17 -25 -19 -25
-8 0 8 -7 17 -15 21 -13 5 -13 8 2 24 14 15 20 16 28 7 6 -6 15 -14 22 -16z"/>
</g>
</svg>
